HIERARCHY
ROOT Hips
{
  OFFSET 34.0425 94 25.1896
  CHANNELS 6 Xposition Yposition Zposition Zrotation Xrotation Yrotation
  JOINT ToSpine
  {
    OFFSET -0.0105055 1.38907 -7.13956
    CHANNELS 3 Zrotation Xrotation Yrotation
    JOINT Spine
    {
      OFFSET 0.0105055 10 1
      CHANNELS 3 Zrotation Xrotation Yrotation
      JOINT Spine1
      {
        OFFSET 0 12 1.60637
        CHANNELS 3 Zrotation Xrotation Yrotation
        JOINT Neck
        {
          OFFSET 0 27 2.26658
          CHANNELS 3 Zrotation Xrotation Yrotation
          JOINT Head
          {
            OFFSET 0 9 2.12705
            CHANNELS 3 Zrotation Xrotation Yrotation
            End Site
            {
              OFFSET 0 11 2
            }
          }
        }
        JOINT LeftShoulder
        {
          OFFSET 8 19.6109 2.86452
          CHANNELS 3 Zrotation Xrotation Yrotation
          JOINT LeftArm
          {
            OFFSET 12 1 0.681055
            CHANNELS 3 Zrotation Xrotation Yrotation
            JOINT LeftForeArm
            {
              OFFSET 19 0 -1.52608
              CHANNELS 3 Zrotation Xrotation Yrotation
              JOINT LeftHand
              {
                OFFSET 23 0 0
                CHANNELS 3 Zrotation Xrotation Yrotation
                End Site
                {
                  OFFSET 10 0 0
                }
              }
            }
          }
        }
        JOINT RightShoulder
        {
          OFFSET -8 19.6109 2.86452
          CHANNELS 3 Zrotation Xrotation Yrotation
          JOINT RightArm
          {
            OFFSET -12 1 0.681055
            CHANNELS 3 Zrotation Xrotation Yrotation
            JOINT RightForeArm
            {
              OFFSET -19 0 -1.52608
              CHANNELS 3 Zrotation Xrotation Yrotation
              JOINT RightHand
              {
                OFFSET -23 0 0
                CHANNELS 3 Zrotation Xrotation Yrotation
                End Site
                {
                  OFFSET -10 0 0
                }
              }
            }
          }
        }
      }
    }
  }
  JOINT LeftUpLeg
  {
    OFFSET 9 -7.17245 0
    CHANNELS 3 Zrotation Xrotation Yrotation
    JOINT LeftLeg
    {
      OFFSET 0 -44.1113 0
      CHANNELS 3 Zrotation Xrotation Yrotation
      JOINT LeftFoot
      {
        OFFSET 0 -36.1829 0
        CHANNELS 3 Zrotation Xrotation Yrotation
        JOINT LeftToeBase
        {
          OFFSET 0 -4.84184 13
          CHANNELS 3 Zrotation Xrotation Yrotation
          End Site
          {
            OFFSET 0 1 6
          }
        }
      }
    }
  }
  JOINT RightUpLeg
  {
    OFFSET -9 -7.17245 0
    CHANNELS 3 Zrotation Xrotation Yrotation
    JOINT RightLeg
    {
      OFFSET 0 -44.0551 0
      CHANNELS 3 Zrotation Xrotation Yrotation
      JOINT RightFoot
      {
        OFFSET 0 -36.1469 0
        CHANNELS 3 Zrotation Xrotation Yrotation
        JOINT RightToeBase
        {
          OFFSET 0 -4.92256 13
          CHANNELS 3 Zrotation Xrotation Yrotation
          End Site
          {
            OFFSET 0 1 6
          }
        }
      }
    }
  }
}
MOTION
Frames:	14
Frame Time:	0.0416667
34.0425 94 25.1896 0 0 -0 0 0 -0 0 0 -0 0 0 -0 0 0 -0 0 0 -0 0 0 -0 0 0 -0 0 0 -0 0 0 -0 0 0 -0 0 0 -0 0 0 -0 0 0 -0 0 0 -0 0 0 -0 0 0 -0 0 0 -0 0 0 -0 0 0 -0 0 0 -0 0 0 -0 
33.9941 98.0634 25.0992 3.36719 -6.07025 -3.68531 -2.48481e-16 1.59028e-15 -0 -0.320755 -1.51587 1.7819 -6.55045 5.79071 2.30331 6.97168 3.45645 -1.1975 -5.87334 4.70901 2.58458 -34.0628 3.5542 -5.62161 -43.9319 28.4118 -16.4728 -6.70054 -14.7577 -3.08148 -9.26901 0.330365 -4.4045 27.2153 5.51131 13.6083 57.3043 18.6676 3.27648 3.80393 -2.68435 13.2728 2.00535 0.0670286 4.09853 -2.62484 -0.11052 7.40485 -1.21799 22.2612 -11.2207 7.10109 -16.6959 0.977091 0.703315 2.66999 -3.37359 -5.25193 5.2074 -7.52888 1.81191 7.87748 6.75164 -33.2437 -4.57933 -1.26047 5.08298 -22.0719 -10.5706 
33.9229 97.5078 24.9285 3.33575 -5.20267 -3.54242 3.47873e-16 0 3.97569e-16 0.305385 -1.4358 1.84469 -7.28626 4.69546 2.50754 6.85022 3.99511 -1.46915 -5.94316 3.79259 2.31439 -31.6154 3.38087 -5.45814 -42.1635 25.3159 -14.8119 -5.67809 -11.4366 -2.38626 -9.94645 0.308591 -3.52583 25.7136 5.17257 12.6217 53.9058 17.5175 2.52205 3.81748 -3.82315 12.6946 1.25402 0.0455634 4.17927 -2.55929 -1.14255 6.80508 -1.38705 21.8476 -10.7085 8.31232 -15.8836 1.16042 0.367286 1.11522 -1.75584 -4.98477 4.28362 -6.48859 1.73828 7.42803 7.17433 -34.9894 -3.21581 -1.02015 4.99123 -22.2513 -13.6301 
33.9051 97.516 24.8868 3.37525 -5.38161 -3.5847 -4.96962e-16 -1.59028e-15 -0 0.385095 -1.49049 1.9238 -7.47848 5.03951 2.61664 6.51703 4.01003 -1.19232 -5.31395 3.41351 2.3019 -31.4391 3.39299 -5.53219 -42.1777 25.3569 -14.9828 -5.67677 -11.2051 -2.25535 -10.1974 0.336079 -3.75965 25.7414 5.20015 12.6932 53.796 17.6903 2.62487 4.07019 -4.59796 12.6753 1.13108 0.0433724 4.44482 -2.59226 -1.05226 6.88135 -1.32944 22.0409 -10.6473 7.40575 -16.3736 1.06651 0.387739 2.08634 -2.03843 -5.04066 4.41541 -6.54041 1.80666 7.43 7.12503 -35.1655 -3.02412 -0.958087 5.10119 -22.7437 -13.3236 
33.8668 97.4676 24.8428 3.39584 -5.45176 -3.39379 2.98177e-16 -1.59028e-15 -7.95139e-16 -0.16466 -1.3781 1.85931 -6.68094 5.00385 2.38258 6.00871 3.87383 -1.0428 -5.13104 3.67897 2.24024 -31.9342 3.37985 -5.38099 -41.5226 26.2341 -15.0566 -5.85643 -11.9139 -2.56493 -10.0617 0.336371 -3.71569 25.2752 5.11943 12.6687 54.0717 17.5045 2.73513 3.94762 -4.05821 12.5267 1.30608 0.0502831 4.43768 -2.54021 -1.10784 6.90382 -1.40639 22.2465 -10.8542 8.38861 -16.0803 1.18726 0.419643 1.11127 -1.9799 -5.02665 4.51659 -6.59703 1.94222 7.3996 7.04514 -35.7945 -2.78147 -0.897475 5.08434 -23.0157 -14.0325 
33.8696 97.5514 24.7909 3.36732 -5.49511 -3.42754 1.49089e-16 1.59028e-15 1.19271e-15 0.326779 -1.31133 1.88267 -7.29291 4.91905 2.55774 6.62831 3.93655 -1.34271 -5.71433 3.87537 2.30785 -31.5436 3.40069 -5.5278 -42.1766 25.1097 -14.8748 -5.61303 -11.1032 -2.3885 -10.1753 0.337009 -3.71726 25.6114 5.18522 12.7101 53.9273 17.5465 2.54364 3.9471 -4.1419 12.6715 1.46416 0.0560191 4.40191 -2.6133 -0.902214 6.71906 -1.25164 21.7903 -10.6523 7.69573 -16.1188 1.09129 0.350119 1.76741 -1.83004 -5.0025 4.52607 -6.60495 1.76997 7.40649 7.0235 -34.5661 -3.30152 -1.02841 5.01571 -22.0761 -13.0481 
33.8703 97.5372 24.7542 3.41012 -5.58967 -3.42058 -7.45443e-16 0 -3.97569e-16 0.0988033 -1.15164 1.84353 -6.90278 4.8452 2.4321 6.21486 3.8702 -1.13897 -5.55758 3.963 2.33335 -32.2188 3.38455 -5.32666 -41.5051 25.5388 -14.8395 -5.71201 -11.7442 -2.70096 -10.1392 0.332181 -3.75223 25.402 5.12215 12.6158 53.8271 17.2238 2.58826 3.30213 -2.12434 12.7763 2.34816 0.0854184 4.28957 -2.71658 -0.805389 6.64796 -1.17953 21.7309 -10.7293 7.78487 -15.975 1.09387 0.310444 1.48633 -1.61633 -5.09672 4.5922 -6.7113 1.85892 7.44261 7.26423 -34.738 -3.18425 -0.996183 5.00522 -22.1906 -13.4324 
33.835 97.4914 24.7265 3.46687 -5.57615 -3.52212 1.49089e-16 -1.59028e-15 -3.97569e-16 0.0206055 -1.23775 1.86907 -6.90101 4.90113 2.44544 6.08237 3.67277 -1.14231 -5.41751 4.32508 2.25667 -32.3645 3.35045 -5.20522 -41.2329 25.9449 -14.853 -5.77793 -12.2264 -2.9777 -10.0794 0.323001 -3.6612 25.3384 5.09304 12.5559 53.9025 17.5164 2.61967 3.59226 -3.15253 12.8255 2.68131 0.104189 4.45165 -2.67516 -0.91249 6.81091 -1.32538 21.9181 -10.718 7.94337 -15.9999 1.11814 0.309486 1.37391 -1.5899 -5.09993 4.51081 -6.6374 1.89027 7.46373 7.21227 -35.661 -2.82559 -0.908755 5.09354 -22.9421 -13.778 
33.8162 97.4841 24.6977 3.46107 -5.58069 -3.38796 -2.98177e-16 -2.38542e-15 -0 -0.0968546 -1.21577 1.77193 -6.75812 4.86192 2.30949 5.92329 3.56126 -1.01963 -5.20886 4.22796 2.26209 -32.4494 3.34004 -5.15913 -41.0974 26.1313 -14.9388 -5.81864 -12.4186 -2.83691 -10.0579 0.337297 -3.83281 25.2238 5.05263 12.485 54.008 17.4031 2.72374 3.48121 -2.79414 12.7944 2.9158 0.113656 4.46759 -2.66848 -0.994757 6.74959 -1.26102 22.0475 -10.8065 8.11933 -16.0392 1.14593 0.35766 1.39599 -1.78676 -5.06143 4.53603 -6.61443 1.90719 7.42041 7.04055 -35.7739 -2.7338 -0.88152 5.11858 -23.1021 -13.788 
33.8391 97.567 24.6636 3.39677 -5.54343 -3.47517 -3.97569e-16 0 -1.19271e-15 0.0721232 -1.2345 1.76871 -6.7521 4.82264 2.33377 5.84194 3.45711 -0.966615 -5.31881 4.2218 2.31136 -32.4909 3.34263 -5.15652 -41.076 26.0619 -14.9154 -5.84145 -12.4458 -2.84981 -10.0693 0.341255 -3.84868 25.113 5.0424 12.5064 54.1249 17.3302 2.7238 3.48361 -2.82454 12.7935 2.81336 0.103953 4.24253 -2.64806 -0.880345 6.68614 -1.23378 21.6482 -10.6364 7.56042 -15.9186 1.05848 0.3344 1.68941 -1.75266 -5.0332 4.4645 -6.62769 1.77992 7.46143 7.17745 -34.4359 -3.27409 -1.01574 5.01382 -21.9958 -12.9046 
33.81 97.5619 24.6665 3.34301 -5.63777 -3.56933 3.47873e-16 1.59028e-15 1.59028e-15 0.17983 -1.29684 1.83482 -6.84161 4.9906 2.413 5.85224 3.46206 -0.911068 -5.21014 4.02444 2.33296 -32.3352 3.35659 -5.22784 -41.176 26.1417 -14.9693 -5.86964 -12.5824 -2.8352 -10.0599 0.33617 -3.80142 25.1818 5.08263 12.5991 54.0705 16.9985 2.64965 3.18966 -1.9769 12.8492 2.86017 0.0937832 3.82255 -2.55672 -0.770953 6.79167 -1.29677 21.6687 -10.5737 7.84197 -15.8552 1.09371 0.392161 1.45244 -1.93576 -4.95966 4.55108 -6.5329 1.70062 7.45817 7.19806 -34.179 -3.38803 -1.04201 5.00399 -21.8889 -12.8202 
33.8078 97.5437 24.6583 3.41213 -5.7321 -3.51786 -2.48481e-16 7.95139e-16 -7.95139e-16 0.302106 -1.35339 1.79292 -7.1748 5.13032 2.43893 6.11347 3.52591 -0.999465 -5.37534 3.88573 2.37063 -32.0338 3.343 -5.2611 -41.4964 25.8186 -14.9537 -5.78069 -12.2623 -2.73626 -10.0157 0.335694 -3.83467 25.458 5.16951 12.7357 53.8589 16.7261 2.64191 2.86387 -0.936962 12.862 2.83902 0.0871933 3.51253 -2.61229 -0.690896 6.78966 -1.3174 21.6993 -10.6585 7.76538 -15.9714 1.091 0.376129 1.69907 -1.92 -5.02902 4.66642 -6.60814 1.75982 7.43861 7.18511 -34.6605 -3.21842 -1.00403 5.03507 -22.1743 -13.0219 
33.7783 97.5191 24.6402 3.4782 -5.77859 -3.60018 1.88845e-15 0 7.95139e-16 0.182123 -1.38838 1.8293 -7.13329 5.1807 2.4538 6.28315 3.3899 -1.25227 -5.85541 4.18624 2.30677 -32.0751 3.34362 -5.25332 -41.5377 25.667 -14.9004 -5.70468 -11.9114 -2.75513 -10.2141 0.34348 -3.8421 25.44 5.18752 12.8005 53.8503 16.5456 2.68247 2.87027 -0.963016 12.7667 3.0665 0.096307 3.59773 -2.68423 -0.749571 6.80361 -1.29204 21.8979 -10.6404 7.61451 -16.0234 1.07329 0.316056 1.46947 -1.63562 -5.11326 4.68736 -6.66559 1.89423 7.43545 7.41807 -35.4717 -2.91304 -0.931737 5.05057 -22.5852 -13.6346 
33.7715 97.558 24.6298 3.36651 -5.77023 -3.59139 1.54058e-15 -1.59028e-15 -3.97569e-16 0.182102 -1.53271 1.80351 -6.91795 5.29705 2.39929 6.03016 3.4362 -1.06959 -5.51047 4.10091 2.3141 -32.2723 3.33817 -5.19416 -41.271 25.8013 -14.9406 -5.75562 -12.3858 -2.82512 -10.3103 0.341235 -3.78077 25.3491 5.20705 12.9055 53.9342 16.5651 2.59832 2.82382 -0.85636 12.8486 2.68973 0.0857746 3.65223 -2.54921 -0.649302 6.81364 -1.28239 21.6595 -10.5968 7.58328 -15.9481 1.06375 0.385279 1.74492 -1.96445 -4.95054 4.68468 -6.53157 1.71031 7.4344 7.21308 -34.511 -3.30703 -1.02772 4.98619 -21.9018 -13.0855 
